<svg xmlns="http://www.w3.org/2000/svg" height="24" viewBox="0 -960 960 960" width="24"><path d="M480-333.5q-61.5 0-104-42.5t-42.5-104q0-61.5 42.5-104.25T480-627q61.5 0 104.25 42.75T627-480q0 61.5-42.75 104T480-333.5Zm-400-134q-5.45 0-8.975-3.535-3.525-3.535-3.525-9t3.525-9.215Q74.55-493 80-493h106q5.45 0 9.225 3.785 3.775 3.785 3.775 9.25T195.225-471q-3.775 3.5-9.225 3.5H80Zm694 0q-5.45 0-8.975-3.535-3.525-3.535-3.525-9t3.525-9.215Q768.55-493 774-493h106q5.45 0 9.225 3.785 3.775 3.785 3.775 9.25T889.225-471q-3.775 3.5-9.225 3.5H774Zm-294.035-294q-5.465 0-8.965-3.525T467.5-774v-106q0-5.45 3.535-9.225 3.535-3.775 9-3.775t9.215 3.775Q493-885.45 493-880v106q0 5.45-3.785 8.975-3.785 3.525-9.25 3.525Zm0 694q-5.465 0-8.965-3.525T467.5-80v-106q0-5.45 3.535-9.225 3.535-3.775 9-3.775t9.215 3.775Q493-191.45 493-186v106q0 5.45-3.785 8.975-3.785 3.525-9.25 3.525ZM264-680l-62-60q-4-3.5-3.75-8.5t4.054-9.5q3.696-4.5 8.446-4.5t9.25 4l61 61q4.5 4.5 4.5 9.5t-4 9q-4 4.5-8.75 4t-8.75-5Zm476 478-61-61q-4.5-4-4.5-8.75t4.5-9.75q3-4 8-3.5t9.5 5l62 60q3.5 3.5 3.25 8.5t-4.054 9.5q-3.696 4.5-8.446 4.5T740-202Zm-61-476.5q-4.5-4-4-8.75t5-9.25l60-62q3.5-3.5 8.5-3.25t9.5 4.054q4.5 3.696 4.5 8.446t-4 9.25l-61 61q-4.5 4.5-9.5 4.5t-9-4ZM202-201.783q-4.5-4.217-4.5-8.967 0-4.75 4.5-9.25l61-61q4-4.5 8.75-4.5t9.75 4.5q3.5 3 2.75 8t-4.25 9l-60 62q-4.5 4.5-9 4.5t-9-4.283Z"/></svg>